<svg xmlns="http://www.w3.org/2000/svg" viewBox="0 0 591.64 679.7"><title>california</title><g id="Layer_2" data-name="Layer 2"><g id="Layer_1-2" data-name="Layer 1"><path d="M12.47,94.42l.42-.72A2.25,2.25,0,0,0,12.47,94.42Z" style="fill:#30ff25"/><path d="M345.78,594.31v.05S345.79,594.34,345.78,594.31Z" style="fill:#30ff25"/><path d="M14.32,92.59c-.14-.31-.27-.56-.44-.86-.29.67-.63,1.32-1,2A4.8,4.8,0,0,1,14.32,92.59Z" style="fill:#30ff25"/><path d="M586.77,540.4c-1.48-1.65-3.71-2.52-5.51-3.76a21.72,21.72,0,0,0-4.1-2.74,7.83,7.83,0,0,1-3.31-2.06c-2.22-2.59-2.35-6.48-3.58-9.55a40.24,40.24,0,0,0-5.73-9.71c-3-3.87-7.61-6.7-7.87-12.13-.06-1.38.3-4.05-.26-5.22-1.16-2.45-304.64-266.5-310.93-272-3.95-3.43-2.9-7.69-3-12.76,0-2.65,0-88.4-.08-146.57H19.94c-1,2.33-1.87,4.9-.58,7,2.54-1.29-1.13,10.88-1.47,11.82-1,2.7-3,5.94-3.42,8.77,2.83-2,2.68-8.63,6.25-6.5,4.09,2.45-4.37,2.82-4.78,6.05,0,0-.18-.19-.13-.29-.17,1.35-.16,1.27-1.17,2.16,0,1,.27,2.83-.34,4-1.54-.54-2.16-1.48-1.83-2.45A54,54,0,0,0,9,100.57c.39-.88,1.1-1.75,1.56-2.64a.27.27,0,0,0,.29.19,5.12,5.12,0,0,0-1.14,1.77,4.22,4.22,0,0,0,1.12.38,1.61,1.61,0,0,0-.68.91c-.58-.39-1-.68-1.57,0-1.88,2.35-5.2,10-5,12.82.1,1.77,1.73,3.71,2.19,5.55.58,2.3-.5,3.8-.29,5.88.34,3.34,4.66,5.52,7,8,1.84,2,3.31,2.66,5.34,4.25S19,140.81,20,142.79s4.89,5.47,6.78,8.75c1.55,2.69,4.77,5.72,5.49,8.45.48,1.79,0,4,.46,5.46.59,1.72,1.8,2.71,2.13,4.73.56,3.44,1.11,7.63-.27,11C33,185,32.1,187.79,32.46,191.58c-.78.7.91,4,1,4.08a5.32,5.32,0,0,0-.06.93c-.67.67.63,2.42,1,3.76a33.43,33.43,0,0,0,.91,3.82c.59,1.71,1.48,2.51,1.89,3.78.84,2.59,3.15,11.58-1.61,12.4,1,2.6,1.51,3,3.28,5.47,1,1.41,3.85,4,4,5.35,2.6.77,4.67,4.36,6.71,6.22,4.77,4.37,6.3,10.06,10.9,14,1.75,1.48,4.46,3,6.52,5.17,1.59,1.68,6.09,7.55,3.85,10a3.78,3.78,0,0,0,1.39,1.7c0-.37-.26-.25-.27-.55,2.48-1.44,5.42,3.36,4.73,5.5,1.07.47-.35.15-1.28-.73.52,1.88,2.28,4,2.31,5.94,0,3-2.28,9.51-4.47,11.43a22.52,22.52,0,0,1,3.28.46c-2.06-1.07,1.08-2.55,2-3s5.29,2.57,8,5.72c.42.49,2.49,3.36,3.11,3.66,2,1,3,0,5.45,1.51,2,1.25,4.31,2.8,5.51,5.17,1.91-2,1.28,1.36,1,2.11-.43,1,0,3,.13,4.24.25,2.22,1,4.63.5,6.86-.28,1.29-1.35,2-1.47,2.57a10.68,10.68,0,0,0,1.13,6.93c2.24-2.22,5.18,11.47,4.8,14-.93,6.12.27,7.42,3.5,11.52.43.54-.2,1.05.24,1.44s1-.14,1.18,0a29.86,29.86,0,0,1,2.68,2.94,46.67,46.67,0,0,0,3.45,4.57c3,2.95,5.73,4.69,10,4.56,1.38,0,4.13-1.86,5.81-1.68,3.85.42,4.41,7.15,6.67,8.76a6.69,6.69,0,0,0,.84,3.24,7.78,7.78,0,0,1,1.11-.33c-1.64.66-2,3.29-1.76,5-.14,0-.3-.36-.4-.42.13,2.58-.48,8.15-3.1,9.63s-2.28-2.16-4.56-1.51c0,0-2.16,3.53-2.17,3.45s5.37,5.29,1.11,4.27c1.52,2,4.43,13.19,2.68,15.45,1.85,1.09,2.53,2.93,4.14,4.31s3.37,1.65,5.06,3a25.87,25.87,0,0,1,7.22,9.17c2.13,4.18,6.06,4.69,7.58,9.72,1.21,4,2.77,5.69,5.94,9.22a12.76,12.76,0,0,1,3,4.16c.55,1.62,2.29,4.83,2.23,6.54,1.24-.26,4.31,1,5.29,2.15,1.32-1.47,3.66,3.19,4.54,4.52,2.17,3.28,4.49,6.53,7.58,7.95,2.38,1.1,8.9,1.66,6.5,6.6a1.21,1.21,0,0,1,.44.05c-.4,3.61-2.88,6.74-1.28,9.46,1.06,1.8,3.23,3,5.22,3.84.6.25.89,1.14,1.57,1.27s.5-.71.45-.71c1.53.14,2-.34,3.8.49,6.8,3.2,2.08,13,1.1,18.56,5.45-.62,1.84,9.18,2.48,11.69s1.62,2.56.5,5.9c-.65,2-1.29,4-2,5.53,1.53,2.05,4.59.93,7,3.06,1.55,1.35,2.16,4.69,3.45,5.72s1.8.17,3.6-.06a91,91,0,0,1,20.19-.44,24.32,24.32,0,0,1,8.36,2c1.46.69,2.24,1.53,3.61,1.71s1.86-.72,3.63-.64c1.51.08,2.75,1.39,4.06,1.45,2.08.11,2-.82,3.72-1.31,3.32-1,6.13.52,8.75,1.8a51.33,51.33,0,0,1,7,4.39c2.07,1.41,7.53,3.57,8.35,5.89a.2.2,0,0,0-.2.14c-.14-.21-.09-.44-.27-.65a18.85,18.85,0,0,0,2.41,6.33,2.39,2.39,0,0,1,.35-.55,4.81,4.81,0,0,0,.44,1.57,1.68,1.68,0,0,0,.32-.57,2.62,2.62,0,0,0,.4.38c-.12.13-.47,0-.46.19,2.44.47,4.22,4.24,6.92,3.2-.73-.08-1.74-.39-2.61-.53.58-.13.35-.13.71-.48a16.25,16.25,0,0,1,2.73,1.26c-.16,0-.46-.3-.56-.25,1.67,1.45,4.75,2.21,6.94,2.95a27.18,27.18,0,0,0,3.72,1.07c1.93.38,3.89,1.75,5.51,2,1.18.21,3.78-1,6.23-1.4a41.05,41.05,0,0,1,6.44-.72c6.82-.14,11.4,7.36,12.39,13.5.63,3.85-3.25,5.3.57,7.44,1.15.64,6.35,3.12,6.42,1a4.65,4.65,0,0,1,.36.59,2,2,0,0,0-.1-.72s.28.37.3.39c0-.76-.25-1.64-.22-2.38-.2-.12-.56,0-.78,0a2.87,2.87,0,0,0,.54-1.2c.07.19.19.33.43.19,0,.31,0,.65,0,.87.09-.11.06-.6.29-.48,0,.21-.11.4,0,.64.2-.43.08-.59.16-.9a2.91,2.91,0,0,0,1.14-.82,4,4,0,0,0-.26.88c.74-.36,1.54-.54,2.26-.95l-.53.51c.14,0,.62-.43.62-.13-.5,1.14-.75.22.11,1-.14.28-.38.45-.48.83l.52.35a.52.52,0,0,0-.3-.48c.56-.19.37.31.92-.29-.07.22,0,.3.23.26-.16.62-.31.25-.65.64H351c-.56-.62-.43-1-1.16-1.6a6.23,6.23,0,0,1,5.14,1,10.93,10.93,0,0,1-.83-1.77,8.73,8.73,0,0,1,1.45,1.18c-.46,1.33.82,1.51,2,1.09a7,7,0,0,0,1.19,1.7,10.38,10.38,0,0,0-2.3-1.44.24.24,0,0,1,0,.36c3.86,2.79,7.54,8.92,12.71,9.28a19.82,19.82,0,0,0-2.85-1.24c.47,0,.06.13.1-.48,2.47,1.18,1.43-2.16,3.06-2a12.08,12.08,0,0,0-1.1,2.3c-.59-.15-.06,0-.62.26,1.75.46,3.68,2.77,5.35,4a23,23,0,0,1,4.69,4.21c1.69,2.08,2.19,1.63,4.61,2.82,2.67,1.31,4.46,4.31,6.9,6,3.86,2.65,6.35,6.58,9,10.34.16,0-.11-.4.2-.33.28,1.71,3.24,4.71,4.33,6.92,2.28,4.6,4.81,10.64,5.07,15.83.13,2.51-1.55,2.82-1.54,4.53s2.06,2.71,1.79,5.14c0,0,.5,0,.46,0s-.19-.26-.1-.58c0,0,.06.41.12.29-.83-2.15.38-1.24,1.91-2.23.67,1.48-.09,2.43-1.61,1.94.06.27.25.28.36.51-2.25.18-1.19,5.08-.29,6.78.4-1.24-.36-2.7.76-3.81,1.89-1.86,4.71.68,6,2.42.32.42,2.56,5.18,1.28,5.69-1,.42-3.06-4.84-3-5.4l-.52.27a2.24,2.24,0,0,0-3.25-2.26c-2.94,1.35,2.13,1.74,2,1.62,2.42,1.83,3,4.41,3.47,7.27s-.16,2.9,2.79,3.12c3.51.26,110.81-15.12,127.39-17.36,1.88-.25,3.77-.37,5.65-.5a16.45,16.45,0,0,0,4.16-.37c2.17-.77,4.5-2,6.79-2.19,2.45-.17,5-.44,7.07-1.9,3.6-2.53,5.06-7.83,4.78-12-.24-3.55-1.58-7.55-5.71-8a31.17,31.17,0,0,0-4.2.27,3.84,3.84,0,0,1-4.37-3.67,25.57,25.57,0,0,1,.18-8.94,8,8,0,0,0,.34-2.6c-.16-1.39-1.72-1.7-2.17-2.87-.57-1.51-.18-4.1-.25-5.72a4.46,4.46,0,0,1,.29-2.21,5.64,5.64,0,0,1,2.23-1.85c4.4-2.81,6.91-9.4,7.16-14.43,0-1-.37-2.57,0-3.53.3-.68,1-1.09,1.48-1.64,1.3-1.43-.49-4.15-1-5.65a24.31,24.31,0,0,1-1.23-6.7c-.06-2.49-.39-5.36,1.32-7.31a13.1,13.1,0,0,0,3.25-7.94c.21-1.72,1.5-2.3,2.83-3.07a63.28,63.28,0,0,0,11.56-9,6.5,6.5,0,0,0,1.63-2A4.56,4.56,0,0,0,586.77,540.4ZM193,482a7.78,7.78,0,0,0,.4-3.72c.87.31.55,1.59,1.73,2.1A22,22,0,0,1,193,482ZM410.54,657.85a1.3,1.3,0,0,1,.08.17C410.52,657.93,410.37,658,410.54,657.85Z" style="fill:#30ff25"/><g id="use3536"><g id="state_outline" data-name="state outline"><path d="M19.13,3.5C52.84,5.6,234,8.44,238.25,8.43c3.43,0,3.59-.65,4,2.69.29,2.37.22,195.37.27,199.37.06,5.07-1,9.33,3,12.76,6.29,5.48,309.77,269.53,310.93,272,.56,1.17.2,3.84.26,5.22.26,5.43,4.85,8.26,7.87,12.13a40.24,40.24,0,0,1,5.73,9.71c1.23,3.07,1.36,7,3.58,9.55a7.83,7.83,0,0,0,3.31,2.06,21.72,21.72,0,0,1,4.1,2.74c1.8,1.24,4,2.11,5.51,3.76a4.56,4.56,0,0,1,1.09,4.7,6.5,6.5,0,0,1-1.63,2,63.28,63.28,0,0,1-11.56,9c-1.33.77-2.62,1.35-2.83,3.07a13.1,13.1,0,0,1-3.25,7.94c-1.71,1.95-1.38,4.82-1.32,7.31a24.31,24.31,0,0,0,1.23,6.7c.49,1.5,2.28,4.22,1,5.65-.5.55-1.18,1-1.48,1.64-.42,1,0,2.48,0,3.53-.25,5-2.76,11.62-7.16,14.43a5.64,5.64,0,0,0-2.23,1.85,4.46,4.46,0,0,0-.29,2.21c.07,1.62-.32,4.21.25,5.72.45,1.17,2,1.48,2.17,2.87a8,8,0,0,1-.34,2.6,25.57,25.57,0,0,0-.18,8.94,3.84,3.84,0,0,0,4.37,3.67,31.17,31.17,0,0,1,4.2-.27c4.13.42,5.47,4.42,5.71,8,.28,4.14-1.18,9.44-4.78,12-2.07,1.46-4.62,1.73-7.07,1.9-2.29.16-4.62,1.42-6.79,2.19a16.45,16.45,0,0,1-4.16.37c-1.88.13-3.77.25-5.65.5-16.58,2.24-123.88,17.62-127.39,17.36-2.95-.22-2.28-.16-2.79-3.12s-1.05-5.44-3.47-7.27c.16.12-4.91-.27-2-1.62a2.24,2.24,0,0,1,3.25,2.26l.52-.27c0,.56,2,5.82,3,5.4,1.28-.51-1-5.27-1.28-5.69-1.34-1.74-4.16-4.28-6-2.42-1.12,1.11-.36,2.57-.76,3.81-.9-1.7-2-6.6.29-6.78-.11-.23-.3-.24-.36-.51,1.59.51,2.36-.54,1.52-2.14-.18.16,0,.07.1.19-1.54,1-2.75.08-1.92,2.24-.06.12-.09-.32-.12-.29-.09.32.11.39.1.58s-.48,0-.46,0c.27-2.43-1.79-3.33-1.79-5.14s1.67-2,1.54-4.53c-.26-5.19-2.79-11.23-5.07-15.83-1.09-2.21-4.05-5.21-4.33-6.92-.31-.07,0,.29-.2.33-2.66-3.76-5.15-7.69-9-10.34-2.44-1.67-4.23-4.67-6.9-6-2.42-1.19-2.92-.74-4.61-2.82a23,23,0,0,0-4.69-4.21c-1.67-1.2-3.6-3.51-5.35-4,.56-.25,0-.41.62-.26a12.08,12.08,0,0,1,1.1-2.3c-1.63-.17-.59,3.17-3.06,2,0,.61.37.49-.1.48a19.82,19.82,0,0,1,2.85,1.24c-5.17-.36-8.85-6.49-12.71-9.28a.24.24,0,0,0,0-.36,10.38,10.38,0,0,1,2.3,1.44,7,7,0,0,1-1.19-1.7c-1.15.42-2.43.24-2-1.09a8.73,8.73,0,0,0-1.45-1.18A10.93,10.93,0,0,0,355,592a6.23,6.23,0,0,0-5.14-1c.73.57.6,1,1.16,1.6H350c.34-.39.49,0,.65-.64-.23,0-.3,0-.23-.26-.55.6-.36.1-.92.29a.52.52,0,0,1,.3.48l-.52-.35c.1-.38.34-.55.48-.83-.86-.82-.61.1-.11-1,0-.3-.48.15-.62.13l.53-.51c-.72.41-1.52.59-2.26.95a4,4,0,0,1,.26-.88,2.91,2.91,0,0,1-1.14.82c-.08.31,0,.47-.16.9-.08-.24,0-.43,0-.64-.23-.12-.2.37-.29.48,0-.22,0-.56,0-.87-.24.14-.36,0-.43-.19a2.87,2.87,0,0,1-.54,1.2c.22,0,.58-.12.78,0,0,.74.23,1.62.22,2.38,0,0-.33-.36-.3-.39a2.06,2.06,0,0,1,.1.77c.09,0-.35-.62-.36-.64-.07,2.14-5.27-.34-6.42-1-3.82-2.14.06-3.59-.57-7.44-1-6.14-5.57-13.64-12.39-13.5a41.05,41.05,0,0,0-6.44.72c-2.45.41-5.05,1.61-6.23,1.4-1.62-.3-3.58-1.67-5.51-2a27.18,27.18,0,0,1-3.72-1.07c-2.19-.74-5.27-1.5-6.94-2.95.1-.05.4.26.56.25a16.25,16.25,0,0,0-2.73-1.26c-.36.35-.13.35-.71.48.87.14,1.88.45,2.61.53-2.7,1-4.48-2.73-6.92-3.2,0-.22.34-.06.46-.19A2.83,2.83,0,0,1,290,564c.17,0-.3.64-.29.61a4.81,4.81,0,0,1-.44-1.57,2.39,2.39,0,0,0-.35.55,18.85,18.85,0,0,1-2.41-6.33c.18.21.13.44.27.65a.2.2,0,0,1,.2-.14c-.82-2.32-6.28-4.48-8.35-5.89a51.33,51.33,0,0,0-7-4.39c-2.62-1.28-5.43-2.77-8.75-1.8-1.68.49-1.64,1.42-3.72,1.31-1.31-.06-2.55-1.37-4.06-1.45-1.77-.08-2.21.82-3.63.64s-2.15-1-3.61-1.71a24.32,24.32,0,0,0-8.36-2,91,91,0,0,0-20.19.44c-1.8.23-2.42,1-3.6.06s-1.9-4.37-3.45-5.72c-2.44-2.13-5.5-1-7-3.06.7-1.56,1.34-3.58,2-5.53,1.12-3.34.15-3.31-.5-5.9s3-12.31-2.48-11.69c1-5.61,5.7-15.36-1.1-18.56-1.77-.83-2.27-.35-3.8-.49,0,0,.23.85-.45.71s-1-1-1.57-1.27c-2-.86-4.16-2-5.22-3.84-1.63-2.77,1-6,1.3-9.65A7.69,7.69,0,0,1,193,482a22,22,0,0,0,2.13-1.62c-1.36-.59-.73-2.21-2.22-2.17,2.4-4.94-4.12-5.5-6.5-6.6-3.09-1.42-5.41-4.67-7.58-7.95-.88-1.33-3.22-6-4.54-4.52-1-1.13-4-2.41-5.29-2.15.06-1.71-1.68-4.92-2.23-6.54a12.76,12.76,0,0,0-3-4.16c-3.17-3.53-4.73-5.19-5.94-9.22-1.52-5-5.45-5.54-7.58-9.72a25.87,25.87,0,0,0-7.22-9.17c-1.69-1.31-3.6-1.71-5.06-3s-2.29-3.22-4.14-4.31c1.75-2.26-1.16-13.44-2.68-15.45,4.26,1-1.12-4.43-1.11-4.27s2.14-3.44,2.17-3.45c2.28-.65,1.8,3.07,4.56,1.51s3.23-7.05,3.1-9.63c.1.06.26.37.4.42-.23-1.68.12-4.31,1.76-5a7.78,7.78,0,0,0-1.11.33,6.69,6.69,0,0,1-.84-3.24c-2.26-1.61-2.82-8.34-6.67-8.76-1.68-.18-4.43,1.64-5.81,1.68-4.23.13-7-1.61-10-4.56a46.67,46.67,0,0,1-3.45-4.57,29.86,29.86,0,0,0-2.68-2.94c-.17-.17-.76.34-1.18,0s.19-.9-.24-1.44c-3.23-4.1-4.43-5.4-3.5-11.52.38-2.51-2.56-16.2-4.8-14a10.68,10.68,0,0,1-1.13-6.93c.12-.55,1.19-1.28,1.47-2.57.49-2.23-.25-4.64-.5-6.86-.14-1.24-.56-3.2-.13-4.24.31-.75.94-4.12-1-2.11-1.2-2.37-3.53-3.92-5.51-5.17-2.4-1.51-3.4-.51-5.45-1.51-.62-.3-2.69-3.17-3.11-3.66a17,17,0,0,0-8-5.72c.7.12,1.51.23,2.19.28.11.06-.16-.45-.16-.45-.75-.49-.18.74-.86-1-.87,2.43-2.24-.39.15-1.58-.44.29-.82.22-1.41.66a10.79,10.79,0,0,1,.12-2c-.31,1-.83,3-1.4,1a4.23,4.23,0,0,0,.31,1.76s-.61-.33-.66-.28c.46.32.91,1.12,1.36,1.47-1.65.26-3.71,2-1.65,3.06a22.52,22.52,0,0,0-3.28-.46c2.19-1.92,4.51-8.44,4.47-11.43,0-2-1.79-4.06-2.31-5.94.93.88,2.54,2.38,2.32,3.39,2.85,1.36,3,6,6.55,7.83-.84-2.59-5.72-5.71-5-9.64-.93.6-.69,0-1.64.36-.64-1.33.11-.74-1-1.21.69-2.14-2.25-6.94-4.73-5.5,0,.3.24.18.27.55a3.78,3.78,0,0,1-1.39-1.7c2.24-2.45-2.26-8.32-3.85-10-2.06-2.2-4.77-3.69-6.52-5.17-4.6-3.89-6.13-9.58-10.9-14-2-1.86-4.11-5.45-6.71-6.22-.1-1.34-2.93-3.94-4-5.35-1.77-2.47-2.33-2.87-3.28-5.47,4.76-.82,2.45-9.81,1.61-12.4-.41-1.27-1.3-2.07-1.89-3.78a33.43,33.43,0,0,1-.91-3.82c-.35-1.34-1.65-3.09-1-3.76a5.32,5.32,0,0,1,.06-.93c-.1-.08-1.79-3.38-1-4.08-.36-3.79.58-6.54,2.13-10.36,1.38-3.41.83-7.6.27-11-.33-2-1.54-3-2.13-4.73-.48-1.43,0-3.67-.46-5.46-.72-2.73-3.94-5.76-5.49-8.45-1.89-3.28-5.73-6.66-6.78-8.75s-.14-3.43-2.29-5.13-3.5-2.3-5.34-4.25c-2.3-2.45-6.62-4.63-7-8-.21-2.08.87-3.58.29-5.88-.46-1.84-2.09-3.78-2.19-5.55-.17-2.82,3.15-10.47,5-12.82.55-.69,1-.4,1.57,0a1.61,1.61,0,0,1,.68-.91,4.22,4.22,0,0,1-1.12-.38,5.12,5.12,0,0,1,1.14-1.77.26.26,0,0,1-.29-.19c-.46.89-1.17,1.76-1.56,2.64,1.31-3.06,3.59-5.77,4.92-8.84.17.3.3.55.44.86-2.6,1.41-2.56,3.38,0,4.28.61-1.13.38-2.91.34-4,1-.89,1-.81,1.17-2.16-.05.1.13.25.13.29.41-3.23,8.87-3.6,4.78-6.05-3.57-2.13-3.42,4.54-6.25,6.5.39-2.83,2.45-6.07,3.42-8.77.34-.94,4-13.11,1.47-11.82-1.51-2.43-.09-5.54,1.1-8.15,3.74-8.19,8-28.95-.68-40.69-1-1.37-3.34-1.71-3.27-3.75a17.91,17.91,0,0,1,1-4.61c.66-2,1.3-4.07,1.82-6.15a19.54,19.54,0,0,0,0-2.68A6.54,6.54,0,0,0,19.13,3.5Z" style="fill:none;stroke:#fff;stroke-linejoin:round;stroke-width:7px"/></g></g></g></g></svg>