<svg xmlns="http://www.w3.org/2000/svg" viewBox="0 0 1000.89 348.08"><title>em</title><g id="Layer_2" data-name="Layer 2"><g id="Layer_1-2" data-name="Layer 1"><path d="M568.16,1H620l123,338.79H692.66L657.29,238.3H524.37L487.63,339.78h-47Zm76.11,200L592.11,51.27l-54.2,149.67Z" style="fill:#fff"/><path d="M911.18,190.3q14.3-1.85,19.14-12,2.76-5.55,2.76-16,0-21.3-15.07-30.91t-43.15-9.6q-32.46,0-46,17.61-7.59,9.74-9.9,29H780.18q1.16-45.79,29.6-63.71t66-17.93q43.53,0,70.71,16.61,27,16.6,27,51.66v142.3q0,6.47,2.66,10.38t11.18,3.91c1.85,0,3.92-.12,6.23-.35s4.76-.57,7.38-1v30.67a114.75,114.75,0,0,1-14.76,3.46,108.2,108.2,0,0,1-13.84.69q-21.45,0-31.13-15.22Q936.08,321.79,934,307q-12.69,16.6-36.44,28.82t-52.35,12.22q-34.37,0-56.16-20.85t-21.8-52.17q0-34.32,21.45-53.2T845,198.59ZM823.77,302.44q13.14,10.35,31.13,10.35a94.74,94.74,0,0,0,42.44-10.13q34.59-16.8,34.59-55V214.24q-7.6,4.88-19.56,8.1A165.18,165.18,0,0,1,888.89,227l-25.09,3.23q-22.54,3-33.92,9.44-19.26,10.81-19.26,34.51Q810.62,292.08,823.77,302.44Z" style="fill:#fff"/><path d="M405.85,1H335a22,22,0,0,0-22,22v67a112.09,112.09,0,0,1-32.83,79.26h0A112.13,112.13,0,0,1,313,248.59v69.93a22,22,0,0,0,22,22h70.84" style="fill:none;stroke:#fff;stroke-linecap:round;stroke-linejoin:round;stroke-width:5px"/><path d="M0,137.42v-8.61q12.17-1.18,17-4t7.18-13.14H33v89H21V137.42Z" style="fill:#fff"/><path d="M108.35,135.7a25.46,25.46,0,0,1,10.11,8.64,29.89,29.89,0,0,1,4.46,11.8q1,4.61,1,14.72H75.31q.31,10.2,4.77,16.36t13.8,6.17q8.73,0,13.93-5.83a19.92,19.92,0,0,0,4.13-7.84h11a23.3,23.3,0,0,1-2.9,8.21,29.51,29.51,0,0,1-5.5,7.39A26,26,0,0,1,102,202.06a38.18,38.18,0,0,1-9.1,1,27.88,27.88,0,0,1-21-9.08q-8.62-9.07-8.62-25.43,0-16.1,8.68-26.14t22.7-10A30.2,30.2,0,0,1,108.35,135.7Zm4,26.24q-.68-7.31-3.15-11.67-4.59-8.11-15.28-8.11a16.87,16.87,0,0,0-12.87,5.58,21.22,21.22,0,0,0-5.51,14.2Z" style="fill:#30ff25"/><path d="M138.14,133.86h11.11v9.49a37.08,37.08,0,0,1,7.24-7.18,21.74,21.74,0,0,1,12.6-3.81q8,0,12.85,3.93a20.68,20.68,0,0,1,5,6.62,24.23,24.23,0,0,1,8.79-8,24.64,24.64,0,0,1,11.36-2.59q13.47,0,18.34,9.74,2.63,5.24,2.62,14.1v44.49H216.39V154.26q0-6.67-3.34-9.17a13.25,13.25,0,0,0-8.15-2.49A16.13,16.13,0,0,0,193.52,147q-4.77,4.42-4.78,14.78v38.88H177.33V157.07q0-6.8-1.63-9.92-2.55-4.68-9.54-4.68a16.53,16.53,0,0,0-11.58,4.93q-5.21,4.93-5.21,17.85v35.44H138.14Z" style="fill:#30ff25"/></g></g></svg>
