<svg xmlns="http://www.w3.org/2000/svg" viewBox="0 0 728.29 442.97"><title>nametag</title><g id="Layer_2" data-name="Layer 2"><g id="Layer_1-2" data-name="Layer 1"><path d="M676.4,443H51.89A52,52,0,0,1,0,391.08V51.89A52,52,0,0,1,51.89,0H676.4a52,52,0,0,1,51.89,51.89V391.08A52,52,0,0,1,676.4,443ZM51.89,10A41.94,41.94,0,0,0,10,51.89V391.08A41.94,41.94,0,0,0,51.89,433H676.4a41.94,41.94,0,0,0,41.89-41.89V51.89A41.94,41.94,0,0,0,676.4,10Z" style="fill:#fff"/><path d="M444,84.82H284.33a21,21,0,1,1,0-41.92H444a21,21,0,1,1,0,41.92ZM284.33,52.9a11,11,0,1,0,0,21.92H444a11,11,0,1,0,0-21.92Z" style="fill:#fff"/><path d="M127.48,168.15V119.87h10v18.41h18.77V119.87h10v48.28h-10V146.6H137.51v21.55Z" style="fill:#fff"/><path d="M185.21,168.15h-10V119.87h10Z" style="fill:#fff"/><path d="M245.31,119.87h14.52v48.28h-9.4V135.49c0-.94,0-2.25,0-4s0-3,0-3.91l-9.16,40.52h-9.8l-9.09-40.52c0,.92,0,2.22,0,3.91s0,3,0,4v32.66h-9.4V119.87H227.8l8.79,38Z" style="fill:#fff"/><path d="M296.72,119.87h11.43L292,150.05v18.1H281.91v-18.1L265.2,119.87h11.9l10,21Z" style="fill:#fff"/><path d="M331.22,119.87h10.57L361,153.54V119.87h9.4v48.28H360.28l-19.66-34.26v34.26h-9.4Z" style="fill:#fff"/><path d="M393.64,119.87h11.42l17.08,48.28H411.2L408,158.23H390.23L387,168.15H376.4Zm-.67,30h12.37l-6.1-19Z" style="fill:#fff"/><path d="M460.32,119.87h14.51v48.28h-9.4V135.49c0-.94,0-2.25,0-4s0-3,0-3.91l-9.15,40.52h-9.81l-9.08-40.52c0,.92,0,2.22,0,3.91s0,3,0,4v32.66h-9.4V119.87H442.8l8.79,38Z" style="fill:#fff"/><path d="M519.88,128.42H494.33v10.25h23.45v8.39H494.33v12.41h26.73v8.68H484.47V119.87h35.41Z" style="fill:#fff"/><path d="M556.77,168.15h-10V119.87h10Z" style="fill:#fff"/><path d="M573.47,153.25a9.89,9.89,0,0,0,1.84,4.94c1.68,2,4.54,3,8.6,3a18.58,18.58,0,0,0,5.92-.79q4.32-1.5,4.32-5.6a4.12,4.12,0,0,0-2.12-3.7,22.51,22.51,0,0,0-6.7-2.26l-5.23-1.15q-7.71-1.71-10.59-3.7-4.87-3.34-4.88-10.45a13.86,13.86,0,0,1,4.78-10.78q4.77-4.29,14-4.29a21.58,21.58,0,0,1,13.19,4q5.45,4.05,5.72,11.75h-9.7a6.9,6.9,0,0,0-3.9-6.19,13.29,13.29,0,0,0-6-1.22,11.43,11.43,0,0,0-6.38,1.58,5,5,0,0,0-2.38,4.39,4.13,4.13,0,0,0,2.35,3.86,28.8,28.8,0,0,0,6.41,2l8.48,2a21.62,21.62,0,0,1,8.35,3.5q4.32,3.42,4.32,9.86a13.87,13.87,0,0,1-5.12,11q-5.12,4.36-14.45,4.37-9.54,0-15-4.31a14.24,14.24,0,0,1-5.47-11.84Z" style="fill:#fff"/><path d="M276,254.1a98.7,98.7,0,0,0-11.68.68q-4.63,36.61-9.06,58.37a97.62,97.62,0,0,1,15.64-1.36,30.26,30.26,0,0,1,8.27.79q7.14,2.49,7.14,11.22a8.91,8.91,0,0,1-2.38,6.52,8.64,8.64,0,0,1-6.46,2.44c-1.28,0-3.17-.1-5.67-.29s-4.38-.28-5.66-.28a131.1,131.1,0,0,0-30.83,4.19q-10.2,2.61-29.81,9a13.53,13.53,0,0,1-4.08.9q-4.63,0-4.64-5.21,0-6.57,6-10.2,4.2-2.61,26.3-10.43,4.76-17,10-39.33,1.69-7.69,4-21.3L216.74,268q-5,0-5-6,0-8.49,6.57-12.46.9-.57,11.45-5.1a305,305,0,0,1,31.28-12,80.48,80.48,0,0,1,22.55-3.06q6.81,0,10.2,1.14,8.85,2.83,8.84,13.37,0,11.22-9.4,11.22-2.83,0-8.62-.51T276,254.1Z" style="fill:#30ff25"/><path d="M318.3,338.37A38.52,38.52,0,0,1,306.16,335q-8.4-3.48-8.41-8.25a8.59,8.59,0,0,1,3.3-6.5,10.21,10.21,0,0,1,6.86-2.94,11.5,11.5,0,0,1,4.36,1q11.5,4.53,19.68,4.53a49.14,49.14,0,0,0,13.49-2.07q9.36-2.69,10.31-7.22,1-4.9-8.33-8.8a45.38,45.38,0,0,0-12.93-3.65q-.24-.07-19.28-2.22-5-.48-5-4.92a8.88,8.88,0,0,1,.24-1.75q1.43-6.66,8.8-14.59a72.27,72.27,0,0,1,13.33-11.43q9-6,14-5.95a36.4,36.4,0,0,1,8,1.11l7.93,1.75a9.06,9.06,0,0,1,6.75,5.31,11.51,11.51,0,0,1,.95,4.13,7,7,0,0,1-2.78,5.39,6.7,6.7,0,0,1-4.36,1.83,6.17,6.17,0,0,1-4.92-2.78q-2-.87-11.19-1.59c-1.9-.15-3.38-.23-4.44-.23-2.12,0-4.68,1.25-7.7,3.76s-4.76,4.8-5.23,6.87q-.31,1.26,3.09,1.35,16.83.56,25.47,3.49,15.39,5.24,15.39,15.15,0,9.36-11.19,18.8a59.08,59.08,0,0,1-39,14C321.08,338.52,319.41,338.47,318.3,338.37Z" style="fill:#30ff25"/><path d="M431.28,277.83a68.11,68.11,0,0,0-8.18.48q-3.25,25.62-6.34,40.86a68,68,0,0,1,10.95-.95,21.32,21.32,0,0,1,5.79.55q5,1.74,5,7.85a6.27,6.27,0,0,1-1.67,4.57,6.05,6.05,0,0,1-4.52,1.7c-.9,0-2.23-.06-4-.2s-3.07-.19-4-.19a91.44,91.44,0,0,0-21.58,2.93q-7.14,1.83-20.86,6.27a9.48,9.48,0,0,1-2.86.63c-2.17,0-3.25-1.21-3.25-3.65a8,8,0,0,1,4.2-7.14q2.94-1.82,18.41-7.3,3.33-11.89,7-27.52,1.2-5.4,2.78-14.92l-18.41,5.79q-3.5,0-3.49-4.2,0-6,4.6-8.73.64-.39,8-3.57a212.24,212.24,0,0,1,21.89-8.41,56.31,56.31,0,0,1,15.79-2.14,24.08,24.08,0,0,1,7.14.79q6.19,2,6.19,9.36,0,7.86-6.59,7.86-2,0-6-.36T431.28,277.83Z" style="fill:#30ff25"/><path d="M467.61,338.37A38.45,38.45,0,0,1,455.47,335q-8.4-3.48-8.41-8.25a8.61,8.61,0,0,1,3.29-6.5,10.26,10.26,0,0,1,6.87-2.94,11.5,11.5,0,0,1,4.36,1q11.51,4.53,19.68,4.53a49.07,49.07,0,0,0,13.48-2.07q9.36-2.69,10.32-7.22,1-4.9-8.33-8.8a45.35,45.35,0,0,0-12.94-3.65q-.23-.07-19.27-2.22c-3.34-.32-5-2-5-4.92a8.88,8.88,0,0,1,.24-1.75q1.42-6.66,8.8-14.59a71.94,71.94,0,0,1,13.33-11.43q9-6,14-5.95a36.48,36.48,0,0,1,8,1.11l7.93,1.75a9,9,0,0,1,6.74,5.31,11.34,11.34,0,0,1,1,4.13,7,7,0,0,1-2.78,5.39,6.7,6.7,0,0,1-4.36,1.83,6.16,6.16,0,0,1-4.92-2.78c-1.33-.58-5.05-1.11-11.19-1.59-1.9-.15-3.38-.23-4.44-.23-2.12,0-4.68,1.25-7.7,3.76s-4.76,4.8-5.23,6.87c-.22.84.82,1.29,3.09,1.35q16.81.56,25.47,3.49,15.39,5.24,15.39,15.15,0,9.36-11.19,18.8a59.08,59.08,0,0,1-39,14C470.39,338.52,468.72,338.47,467.61,338.37Z" style="fill:#30ff25"/><path d="M632.84,374.3H95.45a3.5,3.5,0,1,1,0-7H632.84a3.5,3.5,0,0,1,0,7Z" style="fill:#fff"/></g></g></svg>