<svg xmlns="http://www.w3.org/2000/svg" viewBox="0 0 695.34 580.47"><title>stadium</title><g id="Layer_2" data-name="Layer 2"><g id="Layer_1-2" data-name="Layer 1"><path d="M341.69,349.62c-94.92,0-184.32-6.94-251.6-19.55-28.7-5.37-52.18-11.56-70-18.43L38.36,444.77c.76,4.08,3.7,9.82,6.87,12.53,24.09,20.24,76,44.56,177.91,55.36V402.41A18.89,18.89,0,0,1,242,383.53h199.2a18.89,18.89,0,0,1,18.88,18.88V512.88C562.42,502.39,614,478.45,638.83,457.3c3.25-2.64,6.2-8.38,6.95-12.46l17.9-133.35c-17.9,6.95-41.53,13.21-70.38,18.58C525.94,342.68,436.61,349.62,341.69,349.62Z" style="fill:#fff"/><path d="M593.3,227.07c-67.36,12.61-156.69,19.55-251.61,19.55s-184.32-6.94-251.6-19.55c-33.3-6.27-59.58-13.6-78.16-21.83-2.42-1.05-4.76-2.19-6.95-3.32l11.48,83.44c1.44.68,2.95,1.44,4.68,2.19,16.77,7.4,42,14.42,73.1,20.24,66,12.38,153.89,19.18,247.45,19.18s181.46-6.8,247.46-19.18c31.11-5.82,56.41-12.84,73.09-20.24,1.82-.83,3.48-1.58,5-2.34l11.25-83.29c-2.19,1.13-4.53,2.27-7,3.32C652.88,213.47,626.6,220.8,593.3,227.07Z" style="fill:#fff"/><path d="M692.68,64.26l-64-37.6a12,12,0,0,0-4.68-1A11.31,11.31,0,0,0,612.63,37V138.41c-7.4-1.73-15.25-3.32-23.48-4.9C526,121.65,443,114.93,353.93,114.33v-34l57.39-34.14c3.55-2.11,3.55-5.58,0-7.7L347.21,1a12.18,12.18,0,0,0-4.69-1A11.31,11.31,0,0,0,331.2,11.33v103c-89.63.45-173.53,7.24-237,19.18-7.63,1.43-14.8,2.94-21.68,4.45v-32l57.39-34.13c3.55-2.11,3.55-5.59,0-7.7L65.77,26.58a12.13,12.13,0,0,0-4.68-1A11.31,11.31,0,0,0,49.76,36.93V143.62a215.8,215.8,0,0,0-28.77,10C3.78,161.3,0,167.41,0,169.07a3.39,3.39,0,0,0,.6,1.66c1.74,2.8,7,7.78,20.54,13.82,16.77,7.4,42,14.43,73.1,20.24a8.89,8.89,0,0,1,2.57-1.06c55.05-12.83,146.26-20.46,244-20.46,99,0,190.89,7.78,245.79,20.92a8.73,8.73,0,0,1,2,.75c.23,0,.38-.07.61-.07,31.11-5.82,56.41-12.84,73.09-20.24,13.6-6,18.81-11.1,20.39-13.75a3.33,3.33,0,0,0,.61-1.66c0-1.66-3.78-7.77-21-15.4a217.56,217.56,0,0,0-27-9.52V106.09L692.68,72C696.23,69.85,696.23,66.38,692.68,64.26Z" style="fill:#30ff25"/><path d="M538.55,212.64c-52.93-7.77-123.16-12.15-197.69-12.15-74,0-144,4.38-196.93,12.08C201.62,220,270,224.05,341.69,224.05,413.05,224,481,220,538.55,212.64Z" style="fill:#30ff25"/><path d="M474.6,548.9l-14.5-4.76-11.33-3.77-11.33-3.78V406.26H409.81v97.33H273.51V406.26H245.87V536.59l-11.33,3.78-11.33,3.77-14.49,4.76a11.14,11.14,0,0,0-7.18,9.89v14.12a7.58,7.58,0,0,0,7.55,7.56H474.22a7.58,7.58,0,0,0,7.55-7.56V558.79A11.15,11.15,0,0,0,474.6,548.9Z" style="fill:#fff"/></g></g></svg>